<svg width="48" height="46" viewBox="0 0 48 46" fill="none" xmlns="http://www.w3.org/2000/svg">
<path fill-rule="evenodd" clip-rule="evenodd" d="M21.1936 4.04875C20.4396 3.75943 19.6695 3.72943 18.9079 3.91677C18.5935 3.99379 18.3131 4.31658 18.4527 4.64466C18.9084 5.71686 18.2629 6.48817 17.7745 7.26584C14.6676 12.213 10.8234 16.5446 6.65181 20.5929C5.12955 22.0705 3.55063 23.489 2.00623 24.9432C1.79668 25.1406 1.49969 25.2786 1.64596 25.7167C1.79182 26.1539 2.14935 25.9685 2.35968 26.1024C3.95603 27.1199 5.02814 26.0293 6.17716 25.2179C11.9884 21.1149 16.5788 15.882 20.253 9.80409C20.9253 8.69189 21.4845 7.52011 21.7705 6.24383C21.9524 5.43061 21.9444 4.62997 21.1936 4.04875Z" fill="#1F94AA"/>
<path fill-rule="evenodd" clip-rule="evenodd" d="M29.1597 22.2427C29.2319 21.6297 29.0581 21.2741 28.4884 21.1776C27.9288 21.0827 27.561 21.1893 27.2309 21.7388C26.5248 22.9142 25.3241 23.5576 24.1991 24.2418C20.2383 26.6521 16.1115 28.7592 12.0172 30.9255C11.695 31.0962 11.3536 31.2516 11.3287 31.7252C11.2976 32.3014 11.8382 32.0564 12.0455 32.282C12.7281 33.0248 13.4795 32.6827 14.2049 32.3858C17.9715 30.8435 21.7791 29.3866 25.1997 27.1134C26.3217 26.3676 27.4203 25.5936 28.441 24.706C28.8924 24.3131 28.8641 23.5773 29.5728 23.3378C29.8614 23.2405 30.0438 22.7119 29.9673 22.2684C29.9276 22.0379 29.9121 21.7588 29.6558 21.704C29.3548 21.6397 29.3637 21.9905 29.1597 22.2427Z" fill="#1F94AA"/>
<path fill-rule="evenodd" clip-rule="evenodd" d="M36.1043 36.4466C35.1206 35.9515 34.3491 36.009 33.4441 36.3846C31.7005 37.1083 29.8064 37.1179 27.9434 37.1595C25.4807 37.2151 23.025 37.1063 20.5772 36.7956C19.9571 36.7166 19.3195 36.7507 18.6915 36.7738C18.4524 36.7824 18.1587 36.8215 18.1648 37.2033C18.1693 37.5144 18.3613 37.5934 18.6003 37.7442C20.4637 38.9198 22.6109 38.7985 24.651 39.0466C27.4322 39.3847 30.2398 39.4408 33.0286 38.9736C34.0521 38.8019 35.0373 38.5094 35.977 38.0687C36.3798 37.8795 36.7216 37.6397 36.7416 37.1217C36.7631 36.5537 36.3515 36.494 36.1043 36.4466Z" fill="#1F94AA"/>
</svg>
