<svg width="48" height="49" viewBox="0 0 48 49" fill="none" xmlns="http://www.w3.org/2000/svg">
<circle cx="24" cy="24.9854" r="24" fill="#1F94AA"/>
<path d="M37.0321 18.0594L24.3698 11.7279C24.2701 11.6779 24.1601 11.6519 24.0485 11.6519C23.9369 11.6519 23.8269 11.6779 23.7272 11.7279L11.0641 18.0594C10.944 18.1184 10.843 18.2101 10.7727 18.324C10.7025 18.4378 10.6657 18.5692 10.6667 18.703V31.3643C10.6649 31.4988 10.7012 31.6311 10.7715 31.7458C10.8419 31.8605 10.9433 31.9529 11.0641 32.0123L23.7272 38.3439C23.8272 38.393 23.9371 38.4185 24.0485 38.4185C24.1599 38.4185 24.2698 38.393 24.3698 38.3439L37.0338 32.0114C37.1538 31.952 37.2546 31.8599 37.3246 31.7457C37.3946 31.6316 37.4309 31.5 37.4294 31.3661V18.703C37.4299 18.5693 37.3929 18.4381 37.3227 18.3244C37.2525 18.2107 37.1518 18.1189 37.0321 18.0594ZM30.2356 16.2683L19.5147 21.9643L17.4765 20.9465L28.1974 15.2514L30.2356 16.2683ZM18.8089 23.2167V26.0132L18.2258 25.4301C18.1594 25.3632 18.0803 25.3102 17.9931 25.2742C17.906 25.2382 17.8126 25.2199 17.7183 25.2203H16.6267V22.127L18.8089 23.2167ZM24.0534 13.1723L26.6178 14.4576L15.8978 20.1519L12.9929 18.7021L24.0534 13.1723ZM23.3325 36.5314L12.1041 30.9216V19.8665L15.1894 21.4087V25.9421C15.1896 26.1326 15.2655 26.3153 15.4003 26.45C15.5352 26.5847 15.7179 26.6603 15.9085 26.6603H17.4196L19.0196 28.2603C19.1544 28.3945 19.337 28.4696 19.5272 28.4692C19.7174 28.4687 19.8997 28.3929 20.0342 28.2582C20.1686 28.1236 20.2443 27.9412 20.2445 27.751V23.9359L23.3289 25.4799L23.3325 36.5314ZM24.0481 24.2301L21.0961 22.7563L31.8169 17.0585L35.1058 18.7039L24.0481 24.2301ZM35.9929 30.9216L24.7663 36.5341V25.4799L35.9921 19.8674L35.9929 30.9216Z" fill="white"/>
</svg>
