<svg width="48" height="49" viewBox="0 0 48 49" fill="none" xmlns="http://www.w3.org/2000/svg">
<g clip-path="url(#clip0_1_389)">
<circle cx="24" cy="24.9854" r="24" fill="#1F94AA"/>
<path d="M25.3513 22.9407L23.7273 19.6519L22.1051 22.9407L18.4731 23.4741L21.1015 26.0314L20.4793 29.6483L23.7273 27.939L26.9753 29.6483L26.3531 26.0314L28.9789 23.4687L25.3513 22.9407Z" fill="white"/>
<path d="M12.0773 24.8093L10.9058 22.4351L9.73156 24.8102L7.11111 25.1906L9.00445 27.0386L8.56 29.6484L10.904 28.4164L13.2444 29.6484L12.8 27.0386L14.6969 25.1906L12.0773 24.8093Z" fill="white"/>
<path d="M37.9983 24.8093L36.8268 22.4351L35.6534 24.8102L33.033 25.1906L34.9263 27.0386L34.4819 29.6484L36.8259 28.4164L39.1663 29.6484L38.7219 27.0386L40.6179 25.1897L37.9983 24.8093Z" fill="white"/>
</g>
<defs>
<clipPath id="clip0_1_389">
<rect width="48" height="48" fill="white" transform="translate(0 0.985352)"/>
</clipPath>
</defs>
</svg>
