<svg width="108" height="106" viewBox="0 0 108 106" fill="none" xmlns="http://www.w3.org/2000/svg">
<path d="M60.7403 46.4797C62.6907 43.288 68.4946 42.8285 71.2971 45.2624C72.1681 46.0467 72.7645 47.0335 72.9919 48.0666C73.4276 50.3444 70.6564 52.8845 67.7789 53.175C66.4418 53.3015 65.0255 52.9795 63.7879 52.2677C62.5504 51.5559 61.5738 50.5017 61.0362 49.297C60.7854 48.3553 60.6857 47.4061 60.7403 46.4797Z" fill="#1F94AA"/>
<path d="M58.6393 62.575C59.1376 62.7884 59.594 63.0914 59.9765 63.4627C60.359 63.8339 60.6585 64.2646 60.8539 64.7244C61.0493 65.1843 61.1359 65.6622 61.1078 66.1249C61.0796 66.5875 60.9373 67.0237 60.6908 67.4028C59.9864 68.6223 58.7399 69.4763 57.2107 69.7873C55.6815 70.0982 53.9873 69.8422 52.4804 69.0725C49.8297 67.6521 48.7479 65.6001 49.7594 63.7376C50.9882 61.4514 55.3389 60.8699 58.6393 62.575Z" fill="#1F94AA"/>
<path d="M40.5488 49.7789C41.9123 47.2683 46.1004 46.3984 48.9093 47.9036C49.8716 48.43 50.6232 49.2453 51.0055 50.1774C51.3879 51.1095 51.3711 52.0857 50.9587 52.8999C49.8358 54.9674 44.8142 56.0791 42.4286 54.7584C41.4891 54.2138 40.7683 53.3906 40.4177 52.4619C40.0671 51.5333 40.1141 50.5715 40.5488 49.7789Z" fill="#1F94AA"/>
<path d="M75.8988 31.6165C76.9459 29.6884 80.7032 28.7889 82.8271 29.98C84.5283 30.8916 85.4717 33.8334 84.6162 35.4087C83.7607 36.984 79.873 37.5594 77.7505 36.5067C77.2738 36.2594 76.8446 35.9329 76.4898 35.5477C76.135 35.1624 75.8622 34.7267 75.6884 34.2678C75.5146 33.8088 75.4437 33.3365 75.4799 32.8803C75.5161 32.4241 75.6587 31.9939 75.8988 31.6165Z" fill="#1F94AA"/>
<path d="M72.09 66.2346C71.4215 65.3747 70.8735 64.4539 70.4609 63.4973C70.2825 62.8968 70.3622 62.2919 70.6834 61.8101C71.0047 61.3282 71.5423 61.007 72.183 60.9141C73.7095 60.5062 75.3245 60.3021 76.9814 60.3077C77.7757 60.3152 78.5832 60.5892 79.2492 61.077C79.9151 61.5648 80.3924 62.2321 80.5896 62.9509C80.8359 63.6556 80.8104 64.3792 80.5173 64.9962C80.2242 65.6131 79.6822 66.0844 78.9853 66.3282C77.9999 66.8252 76.8563 67.0765 75.6544 67.0601C74.4524 67.0438 73.2287 66.7604 72.09 66.2346Z" fill="#1F94AA"/>
<path d="M60.8016 85.9151C58.5466 84.7067 57.7476 82.9333 58.6921 81.4057C59.7856 79.6507 63.4389 79.0133 65.5727 80.2097C66.4312 80.7718 67.0737 81.572 67.3765 82.4559C67.6792 83.3398 67.6206 84.2449 67.2121 84.9968C66.6106 85.8938 65.6064 86.4907 64.4108 86.662C63.2152 86.8332 61.9214 86.5655 60.8016 85.9151Z" fill="#1F94AA"/>
<path d="M85.8036 52.4303C83.8255 51.3703 83.0734 49.6751 83.9753 48.2729C85.0975 46.5122 88.8699 46.0551 91.2169 47.3763C91.6422 47.5826 92.0288 47.8594 92.3529 48.1898C92.6771 48.5203 92.9319 48.8974 93.1018 49.298C93.2718 49.6985 93.3532 50.1141 93.341 50.5192C93.3289 50.9242 93.2234 51.3102 93.0312 51.6534C92.0802 53.3576 88.2519 53.753 85.8036 52.4303Z" fill="#1F94AA"/>
<path d="M24.2315 56.0559C25.4141 54.1369 29.4799 53.4451 31.7013 54.7626C32.0815 54.9786 32.4211 55.2547 32.7004 55.575C32.9797 55.8954 33.1931 56.2534 33.3281 56.6284C33.4631 57.0033 33.5171 57.3877 33.4869 57.7591C33.4566 58.1306 33.3429 58.4816 33.1521 58.7919C32.0581 60.6419 27.8236 61.3386 25.6428 60.064C25.2509 59.8608 24.8994 59.5907 24.6114 59.2716C24.3234 58.9524 24.1055 58.5915 23.9721 58.2127C23.8387 57.8338 23.7928 57.4457 23.8375 57.0739C23.8823 56.7021 24.0165 56.3551 24.2315 56.0559Z" fill="#1F94AA"/>
<path d="M55.7355 39.3795C55.4553 38.8374 54.4991 37.7531 54.4947 36.7974C54.5647 36.3211 54.758 35.8821 55.0599 35.5135C55.3619 35.1449 55.7645 34.8564 56.2373 34.67C57.7168 34.1649 59.3648 34.009 61.0425 34.2156C61.6405 34.392 62.2066 34.6825 62.6991 35.0656C63.1917 35.4487 63.598 35.9146 63.8881 36.429C63.9937 36.9242 63.9792 37.418 63.8455 37.8754C63.7119 38.3328 63.4624 38.7426 63.1148 39.0757C61.6855 40.5554 58.2738 40.7715 55.7355 39.3795Z" fill="#1F94AA"/>
<path d="M48.5497 72.9954C50.4091 73.9918 51.2091 75.5752 50.4829 76.9125C49.6719 78.4058 45.7178 79.221 43.9752 78.2447C43.2703 77.8296 42.716 77.2224 42.4109 76.5312C42.1057 75.8401 42.0696 75.11 42.309 74.4708C42.8248 73.5211 43.7565 72.8403 44.9154 72.5664C46.0742 72.2924 47.3735 72.4458 48.5497 72.9954Z" fill="#1F94AA"/>
<path d="M27.453 69.8704C29.3124 70.8668 30.1125 72.4502 29.3862 73.7875C28.5752 75.2808 24.6212 76.096 22.8785 75.1197C22.1736 74.7046 21.6193 74.0974 21.3142 73.4062C21.0091 72.7151 20.973 71.985 21.2123 71.3458C21.7281 70.3961 22.6598 69.7153 23.8187 69.4414C24.9776 69.1674 26.2768 69.3208 27.453 69.8704Z" fill="#1F94AA"/>
<path d="M69.6598 25.6579C68.904 25.2117 68.3293 24.5407 68.0583 23.7879C67.7872 23.0351 67.8413 22.2603 68.2089 21.6286C69.2995 19.8085 72.6634 19.069 74.4688 20.2589C75.213 20.8376 75.7247 21.6193 75.9 22.4451C76.0753 23.2709 75.9009 24.0789 75.4124 24.7049C74.8123 25.4468 73.9178 25.9445 72.8737 26.1175C71.8296 26.2905 70.6972 26.1285 69.6598 25.6579Z" fill="#1F94AA"/>
<path d="M75.8236 89.2414C74.1126 88.3245 73.4953 86.1931 74.4582 84.5376C75.2825 83.0197 77.6677 82.8362 79.8985 84.0422C80.2539 84.228 80.574 84.4721 80.8393 84.7595C81.1045 85.047 81.3094 85.3717 81.4413 85.7141C81.5733 86.0564 81.6296 86.409 81.6067 86.7505C81.5839 87.092 81.4824 87.4151 81.3085 87.7001C80.4174 89.341 77.5589 90.1607 75.8236 89.2414Z" fill="#1F94AA"/>
<path d="M38.403 42.0938C40.3811 43.1538 41.1223 44.6102 40.4678 45.9331C39.9677 46.685 39.1284 47.1854 38.1283 47.3279C37.1283 47.4704 36.0462 47.2438 35.1119 46.6962C33.3267 45.6336 32.3218 43.252 33.1499 42.0328C33.978 40.8135 36.1119 40.8342 38.403 42.0938Z" fill="#1F94AA"/>
<path d="M38.7809 81.8106C40.759 82.8706 41.5003 84.327 40.8457 85.6499C40.3456 86.4018 39.5064 86.9022 38.5063 87.0447C37.5062 87.1872 36.4241 86.9606 35.4898 86.413C33.7047 85.3504 32.6997 82.9688 33.5278 81.7496C34.3559 80.5303 36.4898 80.551 38.7809 81.8106Z" fill="#1F94AA"/>
<path d="M73.9 72.5872C74.6735 73.0205 75.2746 73.6835 75.5783 74.4382C75.882 75.1928 75.8648 75.9809 75.5304 76.6386C74.7061 78.1565 71.4675 78.5712 69.3831 77.4013C68.7196 77.0572 68.1958 76.5093 67.9251 75.8764C67.6545 75.2436 67.6589 74.5768 67.9374 74.0209C68.6741 72.5937 72.374 71.7059 73.9 72.5872Z" fill="#1F94AA"/>
<path d="M48.0592 25.7649C48.8327 26.1983 49.4338 26.8613 49.7375 27.6159C50.0411 28.3705 50.024 29.1587 49.6896 29.8163C48.8653 31.3342 45.6266 31.7489 43.5423 30.579C42.8788 30.2349 42.355 29.687 42.0843 29.0542C41.8136 28.4213 41.818 27.7545 42.0965 27.1986C42.8333 25.7715 46.5331 24.8836 48.0592 25.7649Z" fill="#1F94AA"/>
<path d="M12.8206 53.933C13.1652 54.0796 13.483 54.2844 13.7547 54.5347C14.0263 54.7849 14.246 55.0754 14.4003 55.3882C14.5545 55.701 14.64 56.0296 14.6515 56.3537C14.663 56.6778 14.6003 56.9905 14.4672 57.2728C14.05 58.1456 13.2585 58.7959 12.2474 59.0965C11.2363 59.3971 10.0786 59.3264 9.00059 58.8981C8.61251 58.7696 8.24808 58.5691 7.93327 58.3108C7.61846 58.0524 7.36105 57.7427 7.17937 57.4035C6.9977 57.0644 6.89624 56.7042 6.88225 56.3488C6.86825 55.9933 6.94204 55.6513 7.09838 55.3471C7.7876 53.937 11.0804 53.1169 12.8206 53.933Z" fill="#1F94AA"/>
<path d="M63.3921 94.548C63.7998 93.9374 64.4577 93.5097 65.2504 93.3399C66.0432 93.17 66.92 93.2689 67.7271 93.6192C68.4322 94.0381 68.9668 94.6669 69.2168 95.3709C69.4668 96.075 69.4123 96.7984 69.0648 97.3866C68.8836 97.736 68.6213 98.039 68.2931 98.2784C67.9649 98.5177 67.5772 98.6887 67.1521 98.7815C66.727 98.8744 66.2728 98.8873 65.8155 98.8195C65.3582 98.7517 64.9067 98.6046 64.4869 98.3865C63.833 97.9058 63.3615 97.2515 63.1602 96.5455C62.9588 95.8394 63.0412 95.1296 63.3921 94.548Z" fill="#1F94AA"/>
</svg>
