<svg width="53" height="53" viewBox="0 0 53 53" fill="none" xmlns="http://www.w3.org/2000/svg">
<g clip-path="url(#clip0_1_138)">
<path fill-rule="evenodd" clip-rule="evenodd" d="M19.706 13.6548C19.167 12.9141 18.6648 12.1436 18.1626 11.3731C18.0166 11.2167 17.8774 11.0609 17.7413 10.9089C17.4477 10.5807 17.1692 10.2693 16.8704 10.0033C16.6518 9.80859 16.128 9.61318 15.9809 9.73238C15.7601 9.91119 15.5437 10.3962 15.5849 10.6727C15.6845 11.3974 15.8448 12.1971 16.1521 12.8775C17.0982 15.0234 18.1178 17.1097 19.2044 19.2036C19.8322 20.43 20.644 21.5075 21.8301 22.2197C22.5054 22.6021 23.2001 22.7829 23.8623 22.2466C24.5245 21.7102 24.5288 20.9633 24.2582 20.2531C24.0179 19.5803 23.6369 18.9595 23.2192 18.3684C22.6347 17.5716 22.0486 16.7916 21.4625 16.0116C20.8765 15.2316 20.2904 14.4516 19.706 13.6548ZM34.9824 42.6709C35.3287 42.948 35.7421 43.2328 36.3179 42.8905C36.1969 42.6659 36.0763 42.4386 35.9547 42.2097L35.9543 42.209C35.4688 41.2942 34.9685 40.3519 34.3783 39.4427C32.7396 36.7425 31.0274 34.1019 29.3151 31.4613C29.0792 31.0948 28.7394 30.7504 28.393 30.4733C27.5663 29.9038 26.6443 29.9689 26.1097 30.5877C25.5752 31.2065 25.6748 31.9313 26.3415 32.7545C27.1662 33.6974 27.9844 34.7076 28.7723 35.6805C29.1976 36.2056 29.6189 36.7341 30.039 37.2612L30.0391 37.2613L30.0391 37.2613C30.8761 38.3114 31.7086 39.3559 32.5603 40.3574C33.1412 41.0745 33.8497 41.6881 34.5583 42.3018C34.7 42.4246 34.8418 42.5473 34.9824 42.6709ZM40.2734 15.9561C40.1278 16.1409 39.9838 16.3333 39.8388 16.5269C39.4456 17.0523 39.0451 17.5873 38.5834 18.0066L38.2573 18.3262C35.8217 20.7138 33.4146 23.0735 30.9182 25.392C30.507 25.787 29.9011 26.0919 29.3449 26.2326C28.6112 26.455 28.1632 25.8266 28.4661 25.1476C28.6392 24.7595 28.9097 24.4165 29.204 24.1781C32.6081 21.2351 36.0728 18.367 39.8103 15.8356C39.8839 15.776 39.9878 15.7538 40.0916 15.7317L40.2734 15.9561ZM20.3554 28.598C20.7543 28.2129 21.1533 27.8279 21.5623 27.4553C21.5016 27.3805 21.441 27.3057 21.3869 27.1636C21.2246 27.2641 21.0639 27.3478 20.9032 27.4314C20.7425 27.5152 20.5818 27.5988 20.4195 27.6993C18.9923 28.6074 17.5742 29.5081 16.1561 30.4088C14.7381 31.3095 13.3201 32.2102 11.8928 33.1183C11.6569 33.2784 11.4135 33.4291 11.17 33.5798C10.9265 33.7305 10.6831 33.8813 10.4471 34.0413C10.0792 34.3393 9.90616 34.7274 10.1356 35.1611C10.3954 35.6323 10.8585 35.7528 11.3174 35.5671C11.6355 35.4334 11.9904 35.2698 12.2847 35.0314C12.7397 34.6932 13.1986 34.3554 13.6588 34.0168C15.0831 32.9686 16.5186 31.9121 17.8811 30.8085C18.7598 30.1382 19.5576 29.3681 20.3554 28.598Z" fill="#1F94AA"/>
</g>
<defs>
<clipPath id="clip0_1_138">
<rect width="36" height="39" fill="white" transform="translate(0 22.6758) rotate(-39.0051)"/>
</clipPath>
</defs>
</svg>
