<svg width="32" height="33" viewBox="0 0 32 33" fill="none" xmlns="http://www.w3.org/2000/svg">
<path d="M28.2666 3.65186H3.73329C3.14329 3.65186 2.66663 4.12852 2.66663 4.71852V29.2519C2.66663 29.8419 3.14329 30.3185 3.73329 30.3185H28.2666C28.8566 30.3185 29.3333 29.8419 29.3333 29.2519V4.71852C29.3333 4.12852 28.8566 3.65186 28.2666 3.65186ZM10.5766 26.3752H6.61996V13.6485H10.5766V26.3752ZM8.59996 11.9085C8.14639 11.9085 7.70299 11.774 7.32585 11.522C6.94872 11.27 6.65477 10.9119 6.4812 10.4928C6.30761 10.0738 6.2622 9.61264 6.35069 9.16778C6.43919 8.72292 6.6576 8.31428 6.97833 7.99356C7.29905 7.67283 7.70769 7.45442 8.15255 7.36592C8.59741 7.27743 9.05853 7.32284 9.47759 7.49643C9.89663 7.67 10.2548 7.96395 10.5068 8.34108C10.7588 8.71822 10.8933 9.16161 10.8933 9.61519C10.89 10.8819 9.86329 11.9085 8.59996 11.9085ZM25.39 26.3752H21.4366V20.1852C21.4366 18.7085 21.41 16.8119 19.38 16.8119C17.3233 16.8119 17.0066 18.4185 17.0066 20.0785V26.3752H13.0566V13.6485H16.85V15.3885H16.9033C17.43 14.3885 18.72 13.3319 20.6466 13.3319C24.6533 13.3319 25.39 15.9685 25.39 19.3952V26.3752Z" fill="white"/>
</svg>
