<svg width="105" height="41" viewBox="0 0 105 41" fill="none" xmlns="http://www.w3.org/2000/svg">
<path fill-rule="evenodd" clip-rule="evenodd" d="M1.06427 37.3238H6.29791V16.2505H1.06427V37.3238Z" fill="white"/>
<path fill-rule="evenodd" clip-rule="evenodd" d="M3.68122 2.98535C1.64828 2.98535 0.000335693 4.63362 0.000335693 6.66657C0.000335693 8.69951 1.64828 10.3475 3.68122 10.3475C5.71417 10.3475 7.36211 8.69951 7.36211 6.66657C7.36211 4.63362 5.71417 2.98535 3.68122 2.98535Z" fill="white"/>
<path fill-rule="evenodd" clip-rule="evenodd" d="M23.8869 15.8105C17.9555 15.8105 13.1301 20.636 13.1301 26.5673V37.3241H18.3637V26.5673C18.3637 23.522 20.8415 21.0442 23.8869 21.0442C26.9322 21.0442 29.41 23.522 29.41 26.5673V37.3241H34.6436V26.5673C34.6436 20.636 29.8182 15.8105 23.8869 15.8105Z" fill="white"/>
<path fill-rule="evenodd" clip-rule="evenodd" d="M58.776 9.26855H53.5424V27.6848C53.5424 32.9999 57.8663 37.3242 63.1814 37.3242H67.3906V32.0905H63.1814C60.7524 32.0905 58.776 30.1142 58.776 27.6848V21.4845H65.7551V16.2509H58.776V9.26855Z" fill="white"/>
<path fill-rule="evenodd" clip-rule="evenodd" d="M84.4518 32.0986C81.4938 33.1829 78.2048 31.6583 77.1205 28.7C76.0361 25.7417 77.5608 22.453 80.5191 21.3686C83.4774 20.2843 86.7664 21.8086 87.8508 24.7672C88.9351 27.7256 87.4102 31.0143 84.4518 32.0986ZM104.582 18.6344C103.882 16.7248 101.767 15.7441 99.8571 16.4444C98.8202 16.8242 98.0606 17.6233 97.6916 18.5785L97.6897 18.5732C97.0093 20.333 94.1946 22.856 90.1863 18.9105L90.1879 18.9154C87.2558 16.0356 82.8163 14.9208 78.7076 16.4268C73.0245 18.5101 70.0956 24.8281 72.1786 30.5112C74.2616 36.1946 80.5799 39.1235 86.2633 37.0405C90.3717 35.5345 93.0393 31.815 93.4161 27.7223L93.418 27.7272C93.927 22.1259 97.7054 22.2322 99.3622 23.1353L99.3602 23.1304C100.259 23.6211 101.355 23.7395 102.392 23.3597C104.301 22.6597 105.282 20.544 104.582 18.6344Z" fill="white"/>
<path fill-rule="evenodd" clip-rule="evenodd" d="M41.4759 37.3238H46.7095V16.2505H41.4759V37.3238Z" fill="white"/>
<path fill-rule="evenodd" clip-rule="evenodd" d="M44.0926 2.98535C42.0597 2.98535 40.4118 4.63362 40.4118 6.66657C40.4118 8.69951 42.0597 10.3475 44.0926 10.3475C46.1256 10.3475 47.7735 8.69951 47.7735 6.66657C47.7735 4.63362 46.1256 2.98535 44.0926 2.98535Z" fill="white"/>
</svg>
