<svg width="340" height="123" viewBox="0 0 340 123" fill="none" xmlns="http://www.w3.org/2000/svg">
<g clip-path="url(#clip0_1_174)">
<path d="M317.609 123H21.5052C18.6812 123 15.8849 122.443 13.2758 121.36C10.6666 120.276 8.29593 118.688 6.29897 116.687C4.302 114.685 2.7179 112.308 1.63712 109.693C0.556341 107.077 4.51706e-05 104.274 0 101.443L0 21.5575C9.03517e-05 18.7264 0.556417 15.923 1.63721 13.3074C2.71801 10.6919 4.30211 8.31532 6.29907 6.31352C8.29602 4.31171 10.6667 2.72383 13.2758 1.64055C15.8849 0.557278 18.6813 -0.000181129 21.5052 4.41463e-08H317.609C323.312 4.41463e-08 328.781 2.27123 332.814 6.31404C336.846 10.3569 339.112 15.8401 339.112 21.5575V101.443C339.112 107.16 336.846 112.643 332.814 116.686C328.781 120.729 323.312 123 317.609 123Z" fill="#D0D5E7"/>
<path d="M85.4983 44.6764C84.6021 44.1991 83.8548 43.483 83.3385 42.6071C82.8248 41.7059 82.5546 40.6859 82.5546 39.6479C82.5546 38.6099 82.8248 37.5899 83.3385 36.6887C83.8546 35.8127 84.602 35.0966 85.4983 34.6194C86.4543 34.1298 87.5124 33.8745 88.5859 33.8745C89.6594 33.8745 90.7176 34.1298 91.6735 34.6194C92.5678 35.0952 93.3148 35.8077 93.8333 36.6794C94.347 37.5835 94.6172 38.6061 94.6172 39.6465C94.6172 40.687 94.347 41.7096 93.8333 42.6137C93.3154 43.4868 92.5683 44.2005 91.6735 44.6771C90.7176 45.1667 89.6594 45.422 88.5859 45.422C87.5124 45.422 86.4543 45.1667 85.4983 44.6771M90.6029 43.0868C91.1941 42.757 91.6816 42.2682 92.0107 41.6755C92.3467 41.0527 92.5226 40.3557 92.5226 39.6476C92.5226 38.9395 92.3467 38.2425 92.0107 37.6196C91.6816 37.027 91.1941 36.5382 90.6029 36.2083C89.9831 35.8749 89.2906 35.7004 88.5871 35.7004C87.8837 35.7004 87.1912 35.8749 86.5713 36.2083C85.9802 36.5382 85.4926 37.027 85.1636 37.6196C84.8276 38.2425 84.6516 38.9395 84.6516 39.6476C84.6516 40.3557 84.8276 41.0527 85.1636 41.6755C85.4926 42.2682 85.9801 42.757 86.5713 43.0868C87.1915 43.4191 87.8839 43.593 88.5871 43.593C89.2903 43.593 89.9827 43.4191 90.6029 43.0868Z" fill="#593C8F"/>
<path d="M104.884 36.6968L101.22 45.2615H99.1556L95.4924 36.6968H97.5721L100.228 43.0462L102.964 36.6968H104.884Z" fill="#593C8F"/>
<path d="M114.609 36.6968V45.2615H112.705V44.1685C112.381 44.5568 111.97 44.8622 111.505 45.0597C111.015 45.2714 110.487 45.3782 109.953 45.3732C109.463 45.4005 108.972 45.33 108.51 45.1661C108.047 45.0021 107.621 44.7478 107.257 44.4179C106.603 43.7836 106.274 42.8372 106.274 41.588V36.6968H108.274V41.3159C108.225 41.9359 108.411 42.5514 108.794 43.0404C108.986 43.2359 109.217 43.3879 109.472 43.4859C109.728 43.584 110.001 43.6259 110.274 43.6088C110.589 43.6238 110.903 43.5722 111.197 43.4573C111.491 43.3425 111.757 43.1669 111.978 42.9421C112.429 42.4102 112.656 41.723 112.609 41.0266V36.6968H114.609Z" fill="#593C8F"/>
<path d="M119.231 33.3604H117.231V45.2609H119.231V33.3604Z" fill="#593C8F"/>
<path d="M128.099 37.5058C128.765 38.11 129.099 39.0212 129.1 40.2394V45.2596H127.212V44.217C126.954 44.6006 126.589 44.8994 126.163 45.0758C125.643 45.2867 125.085 45.388 124.524 45.3735C123.947 45.385 123.374 45.2725 122.844 45.0437C122.394 44.85 122.009 44.5324 121.731 44.1277C121.47 43.7372 121.333 43.2758 121.34 42.8054C121.329 42.4513 121.4 42.0994 121.548 41.7779C121.697 41.4564 121.918 41.1742 122.195 40.954C122.766 40.487 123.665 40.2573 124.892 40.2573H127.099V40.1273C127.115 39.8724 127.076 39.617 126.983 39.379C126.89 39.141 126.747 38.9263 126.562 38.7498C126.11 38.3963 125.543 38.2241 124.971 38.267C124.49 38.2671 124.012 38.3429 123.555 38.4915C123.127 38.6229 122.728 38.8353 122.38 39.1171L121.596 37.6593C122.081 37.2977 122.629 37.0305 123.213 36.8715C123.863 36.6875 124.537 36.5957 125.213 36.5987C126.469 36.5987 127.432 36.9011 128.099 37.5058M126.276 43.5683C126.659 43.3475 126.951 42.9978 127.102 42.5812V41.5886H125.037C123.886 41.5886 123.31 41.968 123.31 42.7268C123.305 42.8959 123.342 43.0637 123.417 43.2151C123.492 43.3665 123.604 43.4969 123.742 43.5945C124.097 43.8273 124.518 43.9391 124.942 43.9135C125.41 43.9221 125.871 43.8028 126.277 43.5686" fill="#593C8F"/>
<path d="M136.752 44.7955C136.498 44.9959 136.207 45.1431 135.895 45.2284C135.548 45.3262 135.189 45.3748 134.829 45.3729C134.035 45.4239 133.253 45.1588 132.653 44.6352C132.384 44.3496 132.177 44.0112 132.045 43.6413C131.913 43.2714 131.858 42.8781 131.885 42.4861V38.365H130.479V36.7613H131.887V34.8047H133.887V36.7613H136.174V38.365H133.887V42.4389C133.863 42.7839 133.972 43.1251 134.191 43.3922C134.306 43.5063 134.444 43.5946 134.596 43.6512C134.747 43.7077 134.909 43.7312 135.071 43.7202C135.473 43.7354 135.869 43.6114 136.191 43.3691L136.752 44.7955Z" fill="#593C8F"/>
<path d="M138.495 34.9409C138.379 34.8303 138.286 34.697 138.223 34.5494C138.16 34.4017 138.127 34.2427 138.127 34.0819C138.127 33.9212 138.16 33.7622 138.223 33.6145C138.286 33.4669 138.379 33.3336 138.495 33.223C138.742 32.9923 139.07 32.8684 139.407 32.8781C139.742 32.8675 140.068 32.9848 140.319 33.2061C140.438 33.3082 140.533 33.4354 140.596 33.5785C140.66 33.7216 140.691 33.8772 140.687 34.0338C140.691 34.1988 140.662 34.3628 140.6 34.5157C140.538 34.6686 140.446 34.8072 140.328 34.923C140.208 35.0433 140.064 35.1376 139.905 35.1998C139.747 35.262 139.577 35.291 139.407 35.2848C139.07 35.2944 138.742 35.1705 138.495 34.9399M138.399 36.6954H140.399V45.2601H138.399V36.6954Z" fill="#593C8F"/>
<path d="M144.603 44.8105C143.926 44.453 143.363 43.9113 142.98 43.2478C142.583 42.558 142.381 41.7733 142.395 40.9773C142.381 40.1848 142.583 39.4034 142.98 38.7176C143.365 38.0572 143.927 37.5182 144.603 37.1618C145.329 36.7916 146.132 36.5986 146.946 36.5986C147.761 36.5986 148.564 36.7916 149.29 37.1618C149.966 37.5177 150.528 38.0568 150.913 38.7176C151.309 39.4034 151.512 40.1848 151.498 40.9773C151.511 41.7733 151.309 42.5579 150.913 43.2478C150.53 43.9118 149.967 44.4535 149.29 44.8105C148.564 45.1806 147.761 45.3736 146.946 45.3736C146.132 45.3736 145.329 45.1806 144.603 44.8105ZM148.762 42.9167C149.227 42.3773 149.482 41.6885 149.482 40.9759C149.482 40.2634 149.227 39.5746 148.762 39.0352C148.526 38.7927 148.241 38.6019 147.928 38.475C147.614 38.348 147.277 38.2876 146.939 38.2975C146.602 38.287 146.266 38.3472 145.954 38.4742C145.641 38.6013 145.358 38.7923 145.124 39.0352C144.664 39.5767 144.411 40.2647 144.411 40.9759C144.411 41.6872 144.664 42.3752 145.124 42.9167C145.358 43.1599 145.641 43.3512 145.953 43.4783C146.266 43.6053 146.602 43.6653 146.939 43.6544C147.277 43.6648 147.614 43.6046 147.928 43.4776C148.242 43.3506 148.526 43.1596 148.762 42.9167Z" fill="#593C8F"/>
<path d="M160.951 37.5466C161.601 38.1775 161.927 39.1131 161.927 40.3533V45.2611H159.927V40.6099C159.972 39.9997 159.783 39.3952 159.399 38.9199C159.203 38.7234 158.967 38.5708 158.708 38.4725C158.449 38.3742 158.172 38.3324 157.895 38.3498C157.574 38.3328 157.253 38.3832 156.953 38.4976C156.653 38.6121 156.38 38.7881 156.151 39.0144C155.694 39.544 155.464 40.2333 155.511 40.932V45.2625H153.511V36.6964H155.415V37.8049C155.75 37.4051 156.179 37.0958 156.663 36.9051C157.203 36.6947 157.779 36.5912 158.359 36.6002C158.832 36.5778 159.304 36.6499 159.749 36.8124C160.194 36.9748 160.602 37.2244 160.95 37.5466" fill="#593C8F"/>
<path d="M171.197 44.6769C170.307 44.2004 169.565 43.4869 169.053 42.6152C168.543 41.7097 168.275 40.6871 168.277 39.6471C168.278 38.6071 168.548 37.5851 169.061 36.6809C169.578 35.8103 170.322 35.0974 171.213 34.6192C172.154 34.115 173.208 33.8587 174.275 33.8742C175.137 33.8638 175.992 34.0281 176.788 34.357C177.528 34.6662 178.185 35.144 178.708 35.7525L177.363 37.0196C176.988 36.5976 176.527 36.2617 176.011 36.0347C175.495 35.8078 174.936 35.6951 174.373 35.7045C173.653 35.6929 172.942 35.8671 172.309 36.2105C171.713 36.5358 171.22 37.0215 170.885 37.6128C170.55 38.2393 170.374 38.939 170.374 39.6498C170.374 40.3605 170.55 41.0603 170.885 41.6867C171.219 42.2786 171.712 42.7645 172.309 43.0894C172.941 43.4342 173.653 43.6092 174.373 43.5974C174.938 43.6062 175.498 43.4917 176.014 43.2618C176.53 43.0319 176.99 42.6922 177.363 42.2661L178.708 43.5474C178.183 44.1577 177.523 44.6357 176.78 44.9428C175.981 45.2712 175.124 45.4354 174.261 45.4257C173.193 45.4407 172.138 45.1844 171.196 44.6807" fill="#593C8F"/>
<path d="M182.04 44.8105C181.363 44.453 180.801 43.9113 180.417 43.2478C180.021 42.5579 179.819 41.7733 179.832 40.9773C179.818 40.1848 180.021 39.4034 180.417 38.7176C180.802 38.0572 181.365 37.5182 182.04 37.1618C182.766 36.7916 183.569 36.5986 184.383 36.5986C185.198 36.5986 186.001 36.7916 186.727 37.1618C187.403 37.5177 187.965 38.0568 188.35 38.7176C188.747 39.4034 188.949 40.1848 188.935 40.9773C188.949 41.7733 188.747 42.5579 188.35 43.2478C187.967 43.9118 187.404 44.4535 186.727 44.8105C186.001 45.1806 185.198 45.3736 184.383 45.3736C183.569 45.3736 182.766 45.1806 182.04 44.8105ZM186.199 42.918C186.664 42.3787 186.919 41.6899 186.919 40.9773C186.919 40.2648 186.664 39.576 186.199 39.0366C185.963 38.7941 185.679 38.6033 185.365 38.4764C185.051 38.3494 184.714 38.289 184.376 38.2989C184.039 38.2884 183.703 38.3486 183.391 38.4756C183.078 38.6027 182.796 38.7937 182.561 39.0366C182.101 39.578 181.848 40.2661 181.848 40.9773C181.848 41.6886 182.101 42.3766 182.561 42.918C182.795 43.1613 183.078 43.3526 183.391 43.4796C183.703 43.6067 184.039 43.6667 184.376 43.6558C184.714 43.6662 185.051 43.606 185.365 43.479C185.679 43.352 185.963 43.1609 186.199 42.918Z" fill="#593C8F"/>
<path d="M198.389 37.5466C199.04 38.1775 199.365 39.1131 199.365 40.3533V45.2611H197.365V40.6099C197.41 39.9997 197.222 39.3952 196.837 38.92C196.641 38.7234 196.406 38.5709 196.146 38.4726C195.887 38.3743 195.61 38.3324 195.333 38.3498C195.012 38.3329 194.692 38.3832 194.391 38.4976C194.091 38.6121 193.818 38.7881 193.589 39.0145C193.132 39.5441 192.902 40.2333 192.95 40.9321V45.2625H190.95V36.6964H192.854V37.8049C193.188 37.4051 193.617 37.0958 194.101 36.9051C194.642 36.6947 195.217 36.5912 195.797 36.6002C196.27 36.5777 196.743 36.6498 197.188 36.8123C197.633 36.9748 198.041 37.2244 198.389 37.5466Z" fill="#593C8F"/>
<path d="M204.195 36.2477V36.7609H206.546V38.3647H204.259V45.2625H202.259V38.3647H200.851V36.7609H202.259V36.2156C202.237 35.818 202.297 35.4201 202.435 35.0465C202.573 34.6729 202.785 34.3313 203.059 34.0428C203.628 33.5922 204.318 33.3205 205.041 33.2618C205.764 33.2031 206.488 33.3601 207.122 33.7131L206.562 35.2227C206.239 34.9934 205.854 34.8701 205.458 34.8699C204.615 34.8699 204.194 35.3297 204.194 36.2494M209.266 34.9433C209.15 34.8327 209.057 34.6995 208.994 34.5518C208.93 34.4041 208.898 34.2451 208.898 34.0844C208.898 33.9237 208.93 33.7646 208.994 33.617C209.057 33.4693 209.15 33.3361 209.266 33.2254C209.513 32.9947 209.84 32.8708 210.178 32.8805C210.512 32.87 210.838 32.9872 211.09 33.2085C211.208 33.3106 211.303 33.4378 211.367 33.5809C211.43 33.7241 211.461 33.8796 211.458 34.0363C211.462 34.2012 211.432 34.3652 211.37 34.5181C211.308 34.6711 211.216 34.8097 211.099 34.9254C210.978 35.0458 210.834 35.14 210.676 35.2022C210.517 35.2645 210.348 35.2934 210.178 35.2872C209.84 35.2969 209.513 35.173 209.266 34.9423M209.17 36.6978H211.17V45.2625H209.17V36.6978Z" fill="#593C8F"/>
<path d="M218.796 36.5986V38.5073C218.643 38.4778 218.488 38.4616 218.332 38.459C217.997 38.4398 217.663 38.4906 217.349 38.6081C217.035 38.7256 216.749 38.9072 216.509 39.1415C216.04 39.6837 215.804 40.3896 215.853 41.1053V45.2592H213.853V36.6966H215.756V37.9475C216.331 37.0476 217.345 36.5979 218.795 36.5986" fill="#593C8F"/>
<path d="M233.847 37.5377C234.476 38.165 234.791 39.1036 234.791 40.3535V45.2613H232.791V40.61C232.835 40.0041 232.659 39.4025 232.295 38.917C232.114 38.7227 231.893 38.571 231.646 38.4727C231.4 38.3744 231.135 38.332 230.871 38.3486C230.57 38.3355 230.269 38.3881 229.99 38.5028C229.711 38.6176 229.46 38.7917 229.254 39.0132C228.818 39.5467 228.601 40.2264 228.646 40.9146V45.2602H226.646V40.61C226.691 40.0041 226.515 39.4025 226.15 38.917C225.97 38.7227 225.748 38.571 225.502 38.4727C225.256 38.3744 224.991 38.332 224.726 38.3486C224.425 38.3339 224.123 38.385 223.843 38.4985C223.563 38.612 223.311 38.7852 223.104 39.006C222.669 39.5427 222.454 40.225 222.503 40.9146V45.2602H220.504V36.6965H222.408V37.7871C222.731 37.4 223.143 37.0972 223.608 36.9049C224.115 36.6963 224.659 36.5926 225.208 36.6C225.795 36.5882 226.378 36.712 226.911 36.9618C227.398 37.1942 227.807 37.5647 228.087 38.0275C228.448 37.5712 228.915 37.2107 229.447 36.978C230.026 36.7207 230.654 36.5913 231.287 36.5986C231.755 36.5738 232.223 36.6441 232.663 36.8052C233.103 36.9663 233.505 37.2149 233.847 37.536" fill="#593C8F"/>
<path d="M245.438 41.6209H238.735C238.834 42.2219 239.165 42.7599 239.656 43.1194C240.194 43.502 240.843 43.6967 241.503 43.6737C241.933 43.6869 242.361 43.611 242.76 43.4508C243.16 43.2906 243.522 43.0494 243.824 42.7425L244.896 43.9775C244.505 44.4416 244.004 44.8001 243.438 45.0201C242.718 45.2849 241.952 45.403 241.186 45.3674C240.42 45.3319 239.668 45.1435 238.975 44.8132C238.285 44.4612 237.711 43.9181 237.32 43.2484C236.924 42.5583 236.722 41.7738 236.735 40.978C236.724 40.1901 236.92 39.4133 237.304 38.7255C237.673 38.0673 238.219 37.5259 238.879 37.1624C239.576 36.7812 240.359 36.5872 241.152 36.5992C241.932 36.5865 242.7 36.7775 243.383 37.1535C244.032 37.5153 244.565 38.055 244.919 38.7093C245.298 39.4221 245.487 40.2204 245.47 41.0276C245.47 41.1656 245.459 41.3635 245.438 41.6212M239.527 38.7734C239.08 39.1621 238.792 39.7025 238.718 40.291H243.567C243.501 39.7088 243.222 39.1718 242.785 38.7834C242.324 38.4113 241.75 38.2076 241.158 38.206C240.566 38.2044 239.991 38.4049 239.528 38.7745" fill="#593C8F"/>
<path d="M255.957 33.3604V45.2609H254.037V44.1541C253.711 44.5562 253.29 44.8704 252.812 45.0684C252.302 45.2763 251.756 45.3799 251.206 45.3729C250.432 45.3849 249.669 45.1971 248.989 44.8277C248.339 44.469 247.804 43.9326 247.446 43.2808C247.063 42.575 246.87 41.7815 246.886 40.9783C246.87 40.1779 247.063 39.3872 247.446 38.6848C247.806 38.0363 248.34 37.5026 248.989 37.1452C249.669 36.7758 250.432 36.588 251.206 36.5999C251.737 36.5934 252.264 36.6915 252.757 36.8886C253.221 37.0768 253.632 37.3738 253.957 37.7546V33.3604H255.957ZM252.741 43.3277C253.127 43.1077 253.443 42.7827 253.653 42.3903C253.874 41.9528 253.989 41.4693 253.989 40.9789C253.989 40.4885 253.874 40.0049 253.653 39.5674C253.443 39.1749 253.127 38.8495 252.741 38.6282C252.343 38.413 251.898 38.3003 251.445 38.3003C250.993 38.3003 250.548 38.413 250.149 38.6282C249.764 38.8495 249.448 39.1749 249.237 39.5674C249.016 40.0049 248.901 40.4885 248.901 40.9789C248.901 41.4693 249.016 41.9528 249.237 42.3903C249.447 42.7827 249.763 43.1077 250.149 43.3277C250.547 43.5441 250.993 43.6574 251.445 43.6574C251.898 43.6574 252.343 43.5441 252.741 43.3277Z" fill="#593C8F"/>
<g opacity="0.37">
<path d="M57.1914 21.248C56.6 20.6625 55.8968 20.2027 55.1239 19.8962C54.3511 19.5897 53.5245 19.4428 52.6936 19.4642C51.8589 19.476 51.0349 19.6541 50.2696 19.9882C49.5042 20.3223 48.8127 20.8056 48.2354 21.4101L45.7006 24.0564L43.148 21.4083C42.5699 20.8054 41.8786 20.3229 41.1138 19.9887C40.3491 19.6545 39.526 19.4751 38.6919 19.4609C37.8577 19.4467 37.029 19.5979 36.2534 19.9059C35.4778 20.2138 34.7705 20.6725 34.1723 21.2554C33.5741 21.8383 33.0967 22.5341 32.7676 23.3026C32.4385 24.0711 32.2642 24.8973 32.2547 25.7336C32.2452 26.5699 32.4006 27.3998 32.7122 28.1757C33.0237 28.9515 33.4851 29.658 34.0699 30.2545L45.2507 40.3088C45.3755 40.4203 45.5369 40.4817 45.7041 40.4812C45.8717 40.482 46.0335 40.4198 46.1575 40.3067L57.351 30.2183C58.0728 29.4703 58.6002 28.5559 58.8866 27.5555C59.173 26.5552 59.2096 25.4996 58.9934 24.4817C58.7321 23.2462 58.1044 22.1188 57.1928 21.2473" fill="#593C8F"/>
</g>
<path d="M45.7022 46.3376L36.4053 38.0367C36.1439 37.8033 35.9309 37.5205 35.7784 37.2046C35.626 36.8886 35.5371 36.5456 35.5169 36.1952C35.4967 35.8448 35.5455 35.4939 35.6606 35.1624C35.7756 34.8309 35.9547 34.5254 36.1876 34.2633C36.4204 34.0012 36.7025 33.7876 37.0176 33.6348C37.3328 33.482 37.6749 33.3929 38.0244 33.3726C38.374 33.3523 38.724 33.4013 39.0547 33.5166C39.3853 33.632 39.6901 33.8115 39.9515 34.045L45.6933 39.1711L57.3557 28.7015C57.8825 28.2287 58.5751 27.985 59.2811 28.0241C59.9872 28.0632 60.6488 28.3819 61.1205 28.91C61.5922 29.4382 61.8352 30.1325 61.7962 30.8404C61.7572 31.5482 61.4394 32.2115 60.9125 32.6843L45.7022 46.3376Z" fill="#593C8F"/>
<path d="M38.5117 68.2434V71.5454H36.7785V68.2689L33.1112 62.1885H34.9651L37.6974 66.7452L40.4578 62.1885H42.1642L38.5117 68.2434Z" fill="#112D35"/>
<path d="M44.3897 71.1708C43.8262 70.8711 43.3576 70.4193 43.037 69.8664C42.7176 69.2889 42.5499 68.6394 42.5499 67.9791C42.5499 67.3188 42.7176 66.6693 43.037 66.0919C43.359 65.5424 43.8274 65.0938 44.3897 64.7965C44.9894 64.4784 45.6595 64.3172 46.3379 64.3277C47.0192 64.3161 47.6925 64.4772 48.2951 64.7961C48.8582 65.0928 49.3273 65.5416 49.6495 66.0915C49.969 66.669 50.1366 67.3184 50.1366 67.9788C50.1366 68.6391 49.969 69.2886 49.6495 69.866C49.3288 70.4194 48.8595 70.8713 48.2951 71.1704C47.6915 71.4883 47.0179 71.6489 46.3362 71.6374C45.658 71.6477 44.9882 71.4871 44.388 71.1704M47.8561 69.5932C48.2426 69.1435 48.4551 68.5696 48.4551 67.976C48.4551 67.3824 48.2426 66.8085 47.8561 66.3588C47.659 66.1565 47.4221 65.9973 47.1605 65.8915C46.8989 65.7856 46.6182 65.7354 46.3362 65.7439C46.055 65.7344 45.775 65.7842 45.5142 65.8902C45.2534 65.9961 45.0178 66.1558 44.8225 66.3588C44.4382 66.8096 44.2271 67.3831 44.2271 67.976C44.2271 68.569 44.4382 69.1425 44.8225 69.5932C45.018 69.7959 45.2537 69.9554 45.5144 70.0613C45.7751 70.1672 46.0551 70.2172 46.3362 70.2082C46.6181 70.2163 46.8987 70.1658 47.1603 70.06C47.4218 69.9541 47.6587 69.7952 47.8561 69.5932Z" fill="#112D35"/>
<path d="M58.6299 64.4077V71.5449H57.0426V70.6361C56.7735 70.9592 56.4315 71.2134 56.0449 71.3777C55.6363 71.5539 55.1956 71.6431 54.7507 71.6394C54.3426 71.6619 53.934 71.603 53.5487 71.4663C53.1633 71.3295 52.8088 71.1176 52.5056 70.8427C51.9582 70.3116 51.6844 69.5251 51.6844 68.4833V64.4077H53.3519V68.2571C53.3116 68.7732 53.4658 69.2858 53.784 69.6935C53.9436 69.8567 54.1364 69.9836 54.3493 70.0653C54.5622 70.1471 54.7902 70.1819 55.0177 70.1674C55.28 70.1804 55.542 70.1377 55.7868 70.0422C56.0315 69.9467 56.2533 69.8005 56.4378 69.6132C56.8153 69.1699 57.0049 68.5962 56.9659 68.0146V64.4077H58.6299Z" fill="#112D35"/>
<path d="M70.6938 65.1148C71.2359 65.6404 71.5074 66.4197 71.5081 67.4528V71.5425H69.8406V67.6683C69.8798 67.1592 69.722 66.6544 69.3999 66.2588C69.2369 66.0945 69.0407 65.967 68.8246 65.8849C68.6084 65.8029 68.3773 65.768 68.1466 65.7828C67.8793 65.769 67.612 65.8113 67.362 65.907C67.1119 66.0028 66.8846 66.1498 66.6945 66.3388C66.3134 66.7788 66.1217 67.3522 66.1612 67.9336V71.5422H64.4955V61.6255H66.1612V65.2341C66.4458 64.9342 66.7947 64.7033 67.1816 64.5588C67.6147 64.3998 68.0731 64.3213 68.5343 64.327C68.9284 64.3082 69.3224 64.3681 69.6932 64.5033C70.064 64.6386 70.4042 64.8464 70.6941 65.1148" fill="#112D35"/>
<path d="M78.7524 65.0828C79.307 65.5854 79.5848 66.3442 79.586 67.3591V71.5433H78.0131V70.6755C77.7988 70.9948 77.4951 71.2434 77.1403 71.3902C76.7063 71.5652 76.2412 71.6494 75.7735 71.6378C75.2928 71.6483 74.8156 71.5542 74.3747 71.3619C74.0001 71.2015 73.6782 70.9385 73.4458 70.6031C73.2286 70.2766 73.1152 69.8919 73.1204 69.4995C73.1102 69.204 73.1694 68.9102 73.2933 68.6418C73.4171 68.3734 73.602 68.138 73.8332 67.9544C74.3077 67.5676 75.0567 67.374 76.08 67.3735H77.9181V67.2666C77.9318 67.0539 77.8989 66.8408 77.8216 66.6422C77.7444 66.4436 77.6247 66.2643 77.4709 66.1171C77.0935 65.8236 76.621 65.6808 76.1447 65.7163C75.7439 65.7164 75.3456 65.7795 74.9643 65.9033C74.6075 66.0127 74.2749 66.19 73.9849 66.4254L73.3313 65.2083C73.7352 64.9078 74.1915 64.6856 74.6767 64.553C75.2185 64.3995 75.7792 64.3233 76.3422 64.3268C77.391 64.3268 78.1937 64.5787 78.7503 65.0824M77.2325 70.1348C77.5515 69.9508 77.7947 69.6589 77.9185 69.3115V68.4838H76.1984C75.2385 68.4838 74.7586 68.8004 74.7586 69.4336C74.7542 69.5745 74.7849 69.7143 74.8479 69.8403C74.9109 69.9663 75.0043 70.0747 75.1195 70.1555C75.4148 70.3497 75.7646 70.4434 76.1172 70.4227C76.5072 70.4296 76.8918 70.3304 77.2301 70.1358" fill="#112D35"/>
<path d="M88.3854 64.4077L85.3315 71.5449H83.6114L80.5575 64.4077H82.2917L84.5048 69.7004L86.7854 64.4077H88.3854Z" fill="#112D35"/>
<path d="M96.0903 68.5115H90.5054C90.5885 69.0121 90.8634 69.4604 91.2716 69.7607C91.7206 70.0791 92.2614 70.2412 92.8111 70.2221C93.1695 70.2334 93.5263 70.1702 93.8592 70.0365C94.1921 69.9028 94.4937 69.7014 94.7452 69.4451L95.6376 70.477C95.312 70.8631 94.8952 71.1614 94.4252 71.3447C93.8978 71.547 93.3368 71.6468 92.7722 71.6389C92.0553 71.6538 91.3457 71.4929 90.7049 71.1702C90.1299 70.8777 89.651 70.4255 89.3254 69.8676C88.9956 69.2924 88.8273 68.6385 88.8383 67.9751C88.8288 67.3186 88.9926 66.6712 89.313 66.0986C89.6196 65.5495 90.0742 65.098 90.6248 64.7959C91.2043 64.478 91.8564 64.3165 92.5169 64.3272C93.1668 64.316 93.8083 64.4751 94.3781 64.7887C94.9188 65.0901 95.3623 65.5403 95.6561 66.0862C95.9724 66.6797 96.131 67.3448 96.1164 68.0176C96.1164 68.1334 96.1075 68.299 96.0899 68.5128M91.1635 66.1379C90.7908 66.4609 90.5508 66.9111 90.4899 67.4012H94.5315C94.4775 66.9099 94.2396 66.4573 93.8659 66.1349C93.4921 65.8124 93.0103 65.644 92.5176 65.6637C92.024 65.6502 91.5426 65.819 91.1649 66.1379" fill="#112D35"/>
<path d="M101.903 71.4112C101.434 71.2966 100.988 71.1025 100.584 70.8373L101.224 69.5667C101.579 69.7973 101.968 69.9711 102.376 70.0816C102.808 70.2073 103.255 70.2721 103.704 70.2741C104.699 70.2741 105.197 70.0115 105.197 69.4863C105.2 69.3696 105.165 69.2551 105.096 69.1609C105.027 69.0667 104.929 68.9981 104.817 68.9659C104.42 68.833 104.012 68.7386 103.597 68.6841C103.112 68.6165 102.633 68.5141 102.163 68.3775C101.795 68.2612 101.465 68.0512 101.203 67.7681C100.916 67.433 100.77 66.9992 100.796 66.5582C100.789 66.2379 100.863 65.9211 101.012 65.6373C101.16 65.3535 101.377 65.1118 101.644 64.9348C102.323 64.4972 103.123 64.2846 103.93 64.3271C104.423 64.3282 104.915 64.3845 105.396 64.4947C105.817 64.5816 106.222 64.7329 106.596 64.9431L105.956 66.2137C105.338 65.8528 104.633 65.6674 103.917 65.6773C103.533 65.6553 103.15 65.7314 102.803 65.8984C102.692 65.9504 102.598 66.0323 102.53 66.1348C102.463 66.2374 102.426 66.3566 102.422 66.4792C102.419 66.6057 102.457 66.7296 102.531 66.8325C102.604 66.9354 102.709 67.0116 102.829 67.0497C103.238 67.1957 103.66 67.3008 104.089 67.3632C104.563 67.4301 105.032 67.5326 105.49 67.6698C105.848 67.7817 106.172 67.9842 106.429 68.2578C106.71 68.5832 106.851 69.0063 106.823 69.4356C106.828 69.7549 106.751 70.07 106.599 70.3506C106.447 70.6312 106.225 70.8678 105.956 71.0377C105.249 71.4751 104.426 71.6854 103.597 71.6402C103.024 71.6408 102.455 71.5642 101.903 71.4122" fill="#112D35"/>
<path d="M115.156 64.4077V71.5449H113.568V70.6361C113.299 70.9592 112.957 71.2134 112.571 71.3777C112.162 71.5539 111.721 71.6431 111.277 71.6394C110.868 71.6619 110.46 71.603 110.075 71.4663C109.689 71.3295 109.335 71.1176 109.032 70.8427C108.484 70.3116 108.21 69.5251 108.21 68.4833V64.4077H109.878V68.2571C109.838 68.7732 109.992 69.2858 110.31 69.6935C110.47 69.8567 110.662 69.9836 110.875 70.0653C111.088 70.1471 111.316 70.1819 111.544 70.1674C111.806 70.1804 112.068 70.1377 112.313 70.0422C112.557 69.9467 112.779 69.8005 112.964 69.6132C113.341 69.1699 113.531 68.5962 113.492 68.0146V64.4077H115.156Z" fill="#112D35"/>
<path d="M118.867 70.8443C118.297 70.5475 117.821 70.0962 117.495 69.5417C117.16 68.9681 116.989 68.3135 117.001 67.6492C116.989 66.9876 117.16 66.3357 117.495 65.7654C117.821 65.2152 118.294 64.7666 118.86 64.4697C119.476 64.1487 120.162 63.9876 120.855 64.001C121.496 63.9865 122.131 64.1336 122.7 64.4286C123.218 64.7016 123.636 65.132 123.895 65.6582L122.613 66.4066C122.429 66.0952 122.164 65.8393 121.847 65.6654C121.538 65.4992 121.192 65.414 120.841 65.4178C120.555 65.4084 120.271 65.4574 120.004 65.5619C119.738 65.6664 119.496 65.8241 119.293 66.0255C118.899 66.474 118.681 67.0508 118.68 67.6484C118.678 68.246 118.894 68.8238 119.286 69.274C119.623 69.591 120.051 69.7956 120.509 69.8601C120.967 69.9245 121.434 69.8456 121.845 69.6341C122.163 69.4608 122.428 69.2047 122.612 68.8929L123.893 69.6413C123.625 70.1666 123.204 70.5979 122.686 70.8781C122.122 71.1766 121.491 71.3263 120.854 71.313C120.163 71.324 119.48 71.1629 118.866 70.8443" fill="#112D35"/>
<path d="M126.366 71.1706C125.796 70.8739 125.32 70.4225 124.994 69.868C124.659 69.2944 124.488 68.6398 124.5 67.9756C124.488 67.314 124.659 66.662 124.994 66.0918C125.32 65.5417 125.793 65.0933 126.359 64.7963C126.974 64.4754 127.66 64.3142 128.354 64.3276C128.995 64.3132 129.629 64.4602 130.199 64.7553C130.717 65.0282 131.135 65.4587 131.393 65.9848L130.112 66.7333C129.927 66.4219 129.663 66.1659 129.346 65.9921C129.037 65.8258 128.69 65.7406 128.34 65.7444C128.054 65.735 127.769 65.7841 127.503 65.8886C127.237 65.993 126.995 66.1508 126.791 66.3521C126.398 66.8007 126.18 67.3774 126.178 67.9751C126.177 68.5727 126.392 69.1504 126.784 69.6007C127.122 69.9176 127.549 70.1223 128.007 70.1867C128.466 70.2512 128.932 70.1723 129.344 69.9608C129.661 69.7874 129.926 69.5313 130.11 69.2196L131.392 69.968C131.124 70.4933 130.703 70.9245 130.185 71.2048C129.621 71.5033 128.99 71.653 128.352 71.6397C127.661 71.6506 126.979 71.4896 126.365 71.171" fill="#112D35"/>
<path d="M139.498 68.5115H133.913C133.996 69.0121 134.271 69.4604 134.679 69.7607C135.128 70.0791 135.669 70.2412 136.218 70.2221C136.577 70.2334 136.934 70.1702 137.266 70.0365C137.599 69.9028 137.901 69.7014 138.152 69.4451L139.045 70.477C138.719 70.8631 138.302 71.1614 137.832 71.3447C137.305 71.547 136.744 71.6468 136.179 71.6389C135.463 71.6538 134.753 71.4929 134.112 71.1702C133.537 70.8777 133.058 70.4255 132.733 69.8676C132.403 69.2924 132.234 68.6385 132.246 67.9751C132.236 67.3186 132.4 66.6712 132.72 66.0986C133.027 65.5495 133.481 65.098 134.032 64.7959C134.612 64.478 135.264 64.3165 135.924 64.3272C136.574 64.316 137.216 64.4751 137.785 64.7887C138.326 65.0901 138.769 65.5403 139.063 66.0862C139.38 66.6797 139.538 67.3448 139.524 68.0176C139.524 68.1334 139.515 68.299 139.497 68.5128M134.571 66.1393C134.199 66.4623 133.959 66.9124 133.898 67.4026H137.939C137.885 66.9113 137.647 66.4587 137.273 66.1363C136.899 65.8138 136.418 65.6454 135.925 65.6651C135.431 65.6516 134.95 65.8203 134.572 66.1393" fill="#112D35"/>
<path d="M141.631 71.4112C141.162 71.2965 140.716 71.1024 140.313 70.8373L140.953 69.5667C141.308 69.7973 141.696 69.9711 142.105 70.0816C142.536 70.2073 142.983 70.2721 143.433 70.2741C144.428 70.2741 144.926 70.0115 144.926 69.4863C144.929 69.3696 144.893 69.2551 144.824 69.1609C144.755 69.0667 144.657 68.9981 144.545 68.9659C144.149 68.833 143.74 68.7386 143.326 68.6841C142.841 68.6165 142.361 68.5141 141.891 68.3775C141.524 68.2612 141.193 68.0512 140.931 67.7681C140.644 67.433 140.498 66.9992 140.524 66.5582C140.518 66.2379 140.592 65.9211 140.74 65.6373C140.888 65.3535 141.106 65.1118 141.372 64.9348C142.052 64.4972 142.852 64.2846 143.658 64.3271C144.152 64.3282 144.644 64.3845 145.125 64.4947C145.545 64.5816 145.95 64.7329 146.325 64.9431L145.685 66.2137C145.066 65.8528 144.362 65.6674 143.646 65.6773C143.262 65.6553 142.878 65.7314 142.531 65.8984C142.42 65.9504 142.326 66.0323 142.259 66.1348C142.192 66.2374 142.154 66.3566 142.151 66.4792C142.148 66.6057 142.186 66.7296 142.259 66.8325C142.333 66.9354 142.437 67.0116 142.558 67.0497C142.966 67.1957 143.389 67.3008 143.818 67.3632C144.292 67.4301 144.76 67.5326 145.219 67.6698C145.577 67.7817 145.9 67.9842 146.157 68.2578C146.438 68.5832 146.58 69.0063 146.552 69.4356C146.557 69.7549 146.479 70.07 146.327 70.3506C146.175 70.6312 145.954 70.8678 145.684 71.0377C144.978 71.4751 144.154 71.6854 143.325 71.6402C142.753 71.6408 142.183 71.5642 141.631 71.4122" fill="#112D35"/>
<path d="M148.498 71.4109C148.029 71.2964 147.583 71.1023 147.179 70.837L147.819 69.5664C148.173 69.7971 148.562 69.9708 148.97 70.0813C149.402 70.2071 149.849 70.2718 150.298 70.2738C151.294 70.2738 151.791 70.0112 151.791 69.4861C151.794 69.3693 151.759 69.2548 151.69 69.1606C151.621 69.0664 151.523 68.9978 151.411 68.9656C151.014 68.8327 150.606 68.7383 150.191 68.6838C149.706 68.6162 149.227 68.5138 148.757 68.3772C148.39 68.261 148.059 68.051 147.797 67.7678C147.51 67.4327 147.364 66.9989 147.39 66.5579C147.383 66.2375 147.458 65.9205 147.606 65.6366C147.754 65.3526 147.972 65.1109 148.238 64.9338C148.918 64.4962 149.718 64.2836 150.524 64.3261C151.018 64.3273 151.51 64.3835 151.991 64.4937C152.411 64.5807 152.816 64.7319 153.191 64.9421L152.551 66.2127C151.932 65.8518 151.228 65.6664 150.512 65.6764C150.128 65.6543 149.744 65.7304 149.397 65.8975C149.286 65.9495 149.192 66.0313 149.125 66.1338C149.058 66.2364 149.02 66.3556 149.017 66.4783C149.014 66.6047 149.052 66.7286 149.125 66.8315C149.199 66.9344 149.304 67.0106 149.424 67.0487C149.832 67.1948 150.255 67.2998 150.684 67.3622C151.158 67.4292 151.626 67.5317 152.085 67.6688C152.443 67.7807 152.766 67.9832 153.023 68.2569C153.305 68.582 153.447 69.0052 153.419 69.4347C153.424 69.7539 153.347 70.069 153.195 70.3496C153.043 70.6302 152.822 70.8668 152.552 71.0367C151.845 71.4742 151.022 71.6844 150.193 71.6392C149.621 71.6399 149.051 71.5632 148.499 71.4112" fill="#112D35"/>
<path d="M156.695 64.0335V64.4611H158.656V65.7976H156.749V71.5459H155.083V65.7979H153.91V64.4615H155.083V64.0052C155.065 63.674 155.114 63.3426 155.229 63.0315C155.344 62.7204 155.521 62.4362 155.75 62.1966C156.003 61.9657 156.299 61.7882 156.622 61.6746C156.945 61.561 157.287 61.5137 157.629 61.5354C158.159 61.5059 158.685 61.6403 159.136 61.9203L158.669 63.1785C158.4 62.9872 158.079 62.8838 157.75 62.8826C157.048 62.8826 156.696 63.2663 156.696 64.0338" fill="#112D35"/>
<path d="M166.667 64.4077V71.5449H165.08V70.6361C164.81 70.9592 164.469 71.2134 164.082 71.3777C163.673 71.5539 163.233 71.6431 162.788 71.6394C162.38 71.6619 161.971 71.603 161.586 71.4663C161.2 71.3295 160.846 71.1176 160.543 70.8427C159.995 70.3116 159.721 69.5251 159.721 68.4833V64.4077H161.389V68.2571C161.349 68.7732 161.503 69.2858 161.821 69.6935C161.981 69.8567 162.173 69.9836 162.386 70.0653C162.599 70.1471 162.827 70.1819 163.055 70.1674C163.317 70.1804 163.579 70.1377 163.824 70.0422C164.068 69.9467 164.29 69.8005 164.475 69.6132C164.852 69.1699 165.042 68.5962 165.003 68.0146V64.4077H166.667Z" fill="#112D35"/>
<path d="M170.52 61.6255H168.855V71.5425H170.52V61.6255Z" fill="#112D35"/>
<path d="M174.373 61.6255H172.708V71.5425H174.373V61.6255Z" fill="#112D35"/>
<path d="M183.225 64.4076L179.893 72.1187C179.676 72.7613 179.283 73.3292 178.757 73.7566C178.284 74.0827 177.719 74.2494 177.145 74.2325C176.787 74.2309 176.431 74.172 176.091 74.058C175.776 73.9596 175.485 73.795 175.238 73.5752L175.905 72.3456C176.07 72.4998 176.262 72.6219 176.472 72.7057C176.681 72.7931 176.905 72.8384 177.131 72.8392C177.392 72.8493 177.649 72.7688 177.858 72.6112C178.09 72.4027 178.27 72.1429 178.384 71.8524L178.505 71.571L175.398 64.4072H177.131L179.37 69.6841L181.624 64.4072L183.225 64.4076Z" fill="#112D35"/>
<path d="M189.198 71.1706C188.634 70.872 188.165 70.4199 187.846 69.8662C187.526 69.2888 187.359 68.6393 187.359 67.979C187.359 67.3186 187.526 66.6692 187.846 66.0917C188.167 65.5415 188.635 65.0926 189.198 64.7963C189.804 64.4882 190.473 64.3276 191.152 64.3276C191.831 64.3276 192.5 64.4882 193.105 64.7963C193.668 65.0936 194.136 65.5422 194.458 66.0917C194.778 66.6692 194.945 67.3186 194.945 67.979C194.945 68.6393 194.778 69.2888 194.458 69.8662C194.138 70.4191 193.669 70.871 193.105 71.1706C192.5 71.4776 191.831 71.6375 191.152 71.6375C190.473 71.6375 189.804 71.4776 189.198 71.1706ZM192.665 69.5934C193.051 69.1437 193.264 68.5698 193.264 67.9762C193.264 67.3826 193.051 66.8087 192.665 66.359C192.468 66.1565 192.231 65.9973 191.969 65.8914C191.708 65.7856 191.427 65.7354 191.145 65.7441C190.864 65.7348 190.584 65.7847 190.323 65.8906C190.062 65.9965 189.826 66.1561 189.631 66.359C189.248 66.8103 189.037 67.3836 189.037 67.9762C189.037 68.5689 189.248 69.1422 189.631 69.5934C189.827 69.796 190.062 69.9553 190.323 70.0612C190.584 70.1671 190.864 70.2172 191.145 70.2084C191.427 70.2166 191.707 70.1662 191.969 70.0604C192.231 69.9546 192.467 69.7956 192.665 69.5934Z" fill="#112D35"/>
<path d="M203.21 64.4077L200.156 71.5449H198.436L195.382 64.4077H197.115L199.328 69.7004L201.609 64.4077H203.21Z" fill="#112D35"/>
<path d="M211.143 64.4077V71.5449H209.556V70.6361C209.286 70.9592 208.944 71.2134 208.558 71.3777C208.149 71.5539 207.709 71.6431 207.264 71.6394C206.856 71.6619 206.447 71.603 206.062 71.4663C205.676 71.3295 205.322 71.1176 205.019 70.8427C204.471 70.3116 204.197 69.5251 204.197 68.4833V64.4077H205.865V68.2571C205.825 68.7732 205.979 69.2858 206.297 69.6935C206.457 69.8567 206.649 69.9836 206.862 70.0653C207.075 70.1471 207.303 70.1819 207.531 70.1674C207.793 70.1804 208.055 70.1377 208.3 70.0422C208.544 69.9467 208.766 69.8005 208.951 69.6132C209.328 69.1699 209.518 68.5961 209.479 68.0146V64.4077H211.143Z" fill="#112D35"/>
<path d="M214.994 61.6255H213.328V71.5425H214.994V61.6255Z" fill="#112D35"/>
<path d="M222.307 65.0828C222.862 65.5854 223.14 66.3442 223.141 67.3591V71.5433H221.568V70.6756C221.353 70.9948 221.05 71.2434 220.695 71.3902C220.261 71.5652 219.796 71.6494 219.328 71.6378C218.847 71.6483 218.37 71.5542 217.929 71.3619C217.555 71.2015 217.233 70.9385 217 70.6031C216.783 70.2767 216.67 69.8919 216.675 69.4995C216.665 69.204 216.724 68.9102 216.848 68.6418C216.972 68.3734 217.157 68.138 217.388 67.9544C217.862 67.5676 218.611 67.374 219.635 67.3735H221.473V67.2666C221.486 67.0539 221.453 66.8408 221.376 66.6422C221.299 66.4436 221.179 66.2643 221.025 66.1171C220.648 65.8236 220.176 65.6808 219.699 65.7163C219.298 65.7164 218.9 65.7795 218.519 65.9033C218.162 66.0127 217.829 66.19 217.539 66.4254L216.886 65.2083C217.29 64.9078 217.746 64.6856 218.231 64.553C218.773 64.3994 219.334 64.3233 219.897 64.3268C220.946 64.3268 221.749 64.5787 222.305 65.0824M220.785 70.1344C221.104 69.9505 221.348 69.6586 221.471 69.3112V68.4834H219.751C218.791 68.4834 218.311 68.8 218.311 69.4333C218.307 69.5742 218.338 69.714 218.401 69.84C218.464 69.966 218.557 70.0743 218.672 70.1551C218.968 70.3493 219.317 70.4431 219.67 70.4224C220.06 70.4292 220.445 70.3301 220.783 70.1354" fill="#112D35"/>
<path d="M229.553 71.1561C229.343 71.3243 229.1 71.4475 228.841 71.5179C228.552 71.5996 228.253 71.6405 227.954 71.6393C227.292 71.6813 226.64 71.4597 226.141 71.0227C225.916 70.7848 225.743 70.5027 225.633 70.1944C225.523 69.8861 225.478 69.5583 225.501 69.2316V65.7961H224.328V64.4597H225.501V62.8301H227.168V64.4607H229.074V65.7961H227.168V69.1892C227.148 69.4773 227.238 69.7624 227.421 69.9859C227.516 70.0811 227.631 70.155 227.757 70.2025C227.884 70.2501 228.019 70.2703 228.153 70.2618C228.489 70.2733 228.818 70.1695 229.087 69.9676L229.553 71.1561Z" fill="#112D35"/>
<path d="M237.591 68.5115H232.006C232.089 69.0121 232.364 69.4604 232.772 69.7607C233.221 70.0791 233.762 70.2412 234.311 70.2221C234.67 70.2334 235.027 70.1702 235.359 70.0365C235.692 69.9027 235.994 69.7014 236.245 69.4451L237.138 70.477C236.812 70.8631 236.395 71.1614 235.925 71.3447C235.398 71.547 234.837 71.6468 234.272 71.6389C233.556 71.6538 232.846 71.4929 232.205 71.1702C231.63 70.8777 231.151 70.4255 230.826 69.8676C230.496 69.2924 230.327 68.6385 230.339 67.9751C230.329 67.3186 230.493 66.6712 230.813 66.0986C231.12 65.5495 231.574 65.098 232.125 64.7959C232.705 64.478 233.357 64.3165 234.017 64.3272C234.667 64.316 235.309 64.4751 235.878 64.7887C236.419 65.0901 236.863 65.5403 237.156 66.0862C237.473 66.6797 237.631 67.3448 237.617 68.0176C237.617 68.1334 237.608 68.299 237.59 68.5128M232.664 66.1393C232.292 66.4623 232.052 66.9124 231.991 67.4026H236.031C235.977 66.9113 235.74 66.4587 235.366 66.1363C234.992 65.8138 234.51 65.6454 234.018 65.6651C233.524 65.6516 233.043 65.8204 232.665 66.1393" fill="#112D35"/>
<path d="M246.191 61.6255V71.5425H244.592V70.6213C244.32 70.9567 243.97 71.2183 243.571 71.3821C243.145 71.5559 242.689 71.6426 242.229 71.637C241.586 71.6471 240.95 71.4905 240.384 71.1825C239.843 70.8842 239.397 70.4373 239.099 69.8943C238.78 69.3054 238.619 68.6434 238.631 67.9732C238.619 67.3065 238.78 66.648 239.099 66.0629C239.399 65.5222 239.845 65.0775 240.386 64.7799C240.952 64.4724 241.587 64.3164 242.231 64.327C242.674 64.321 243.113 64.4021 243.525 64.5657C243.911 64.723 244.253 64.9715 244.523 65.29V61.6255H246.191ZM243.511 69.9336C243.832 69.7492 244.096 69.4782 244.272 69.1514C244.455 68.7866 244.551 68.3838 244.551 67.9753C244.551 67.5668 244.455 67.164 244.272 66.7992C244.096 66.472 243.833 66.2009 243.511 66.017C243.179 65.8369 242.808 65.7426 242.431 65.7426C242.054 65.7426 241.682 65.8369 241.351 66.017C241.03 66.2011 240.767 66.4722 240.592 66.7992C240.407 67.1636 240.311 67.5666 240.311 67.9753C240.311 68.384 240.407 68.787 240.592 69.1514C240.767 69.4781 241.03 69.7491 241.351 69.9336C241.683 70.1126 242.054 70.2063 242.431 70.2063C242.808 70.2063 243.179 70.1126 243.511 69.9336Z" fill="#112D35"/>
<path d="M256.336 71.1561C256.126 71.3243 255.883 71.4475 255.623 71.5179C255.335 71.5996 255.036 71.6405 254.736 71.6393C254.075 71.6813 253.423 71.4597 252.923 71.0227C252.699 70.7848 252.526 70.5027 252.416 70.1944C252.306 69.8861 252.261 69.5583 252.284 69.2316V65.7961H251.11V64.4597H252.284V62.8301H253.951V64.4607H255.857V65.7961H253.951V69.1892C253.931 69.4773 254.021 69.7624 254.204 69.9859C254.299 70.0811 254.414 70.155 254.54 70.2025C254.667 70.2501 254.801 70.2703 254.936 70.2618C255.271 70.2734 255.601 70.1696 255.869 69.9676L256.336 71.1561Z" fill="#112D35"/>
<path d="M263.91 65.1148C264.45 65.6404 264.721 66.4197 264.722 67.4528V71.5425H263.056V67.6683C263.095 67.1592 262.937 66.6544 262.615 66.2588C262.452 66.0946 262.256 65.9672 262.04 65.8852C261.824 65.8031 261.593 65.7682 261.362 65.7828C261.095 65.769 260.828 65.8113 260.577 65.907C260.327 66.0028 260.1 66.1498 259.91 66.3388C259.529 66.7788 259.337 67.3522 259.377 67.9336V71.5422H257.711V61.6255H259.377V65.2341C259.661 64.9338 260.01 64.7028 260.397 64.5588C260.83 64.3998 261.289 64.3213 261.75 64.327C262.144 64.3083 262.538 64.3683 262.909 64.5035C263.279 64.6388 263.62 64.8465 263.91 65.1148Z" fill="#112D35"/>
<path d="M266.923 62.945C266.826 62.853 266.749 62.7421 266.696 62.619C266.643 62.496 266.616 62.3635 266.616 62.2295C266.616 62.0955 266.643 61.963 266.696 61.84C266.749 61.7169 266.826 61.606 266.923 61.514C267.129 61.3217 267.401 61.2185 267.682 61.2271C267.961 61.2186 268.233 61.316 268.443 61.4999C268.541 61.5852 268.62 61.6913 268.673 61.8105C268.726 61.9298 268.751 62.0592 268.749 62.1897C268.752 62.3272 268.727 62.464 268.675 62.5915C268.624 62.719 268.546 62.8345 268.448 62.9308C268.348 63.0307 268.228 63.1088 268.096 63.1606C267.964 63.2124 267.824 63.2367 267.682 63.2319C267.401 63.2396 267.129 63.1366 266.923 62.945ZM266.843 64.408H268.509V71.5452H266.843V64.408Z" fill="#112D35"/>
<path d="M271.201 71.4112C270.732 71.2966 270.286 71.1025 269.882 70.8373L270.522 69.5667C270.877 69.7973 271.266 69.9711 271.674 70.0816C272.106 70.2073 272.553 70.2721 273.002 70.2741C273.997 70.2741 274.495 70.0115 274.495 69.4863C274.498 69.3696 274.462 69.2551 274.394 69.1609C274.325 69.0667 274.227 68.9981 274.115 68.9659C273.718 68.833 273.31 68.7386 272.895 68.6841C272.41 68.6165 271.931 68.5141 271.46 68.3775C271.093 68.2612 270.762 68.0512 270.501 67.7681C270.214 67.433 270.068 66.9992 270.094 66.5582C270.087 66.2379 270.161 65.9211 270.31 65.6373C270.458 65.3535 270.675 65.1118 270.942 64.9348C271.621 64.4972 272.421 64.2846 273.228 64.3271C273.721 64.3282 274.213 64.3845 274.694 64.4947C275.115 64.5816 275.52 64.7329 275.894 64.9431L275.254 66.2137C274.636 65.8528 273.931 65.6674 273.216 65.6773C272.831 65.6553 272.448 65.7314 272.101 65.8984C271.99 65.9504 271.896 66.0323 271.829 66.1348C271.762 66.2374 271.724 66.3566 271.721 66.4792C271.718 66.6057 271.756 66.7296 271.829 66.8325C271.903 66.9354 272.007 67.0116 272.128 67.0497C272.536 67.1957 272.958 67.3007 273.388 67.3632C273.862 67.4301 274.33 67.5326 274.789 67.6698C275.147 67.7817 275.47 67.9842 275.727 68.2578C276.008 68.5832 276.15 69.0063 276.122 69.4356C276.126 69.7549 276.049 70.07 275.897 70.3506C275.745 70.6312 275.524 70.8678 275.254 71.0377C274.547 71.4751 273.724 71.6854 272.895 71.6402C272.323 71.6408 271.753 71.5642 271.201 71.4122" fill="#112D35"/>
<path d="M35.6046 87.2086C35.0344 86.9118 34.5589 86.4604 34.2323 85.9059C33.8979 85.3324 33.727 84.6778 33.7382 84.0135C33.7264 83.3519 33.8974 82.6999 34.2323 82.1297C34.559 81.5795 35.0315 81.1309 35.5973 80.8339C36.2129 80.513 36.8989 80.3518 37.5927 80.3652C38.2337 80.3508 38.8681 80.4978 39.4377 80.7929C39.9555 81.0658 40.3737 81.4963 40.6321 82.0224L39.3506 82.7709C39.166 82.4595 38.9014 82.2035 38.5845 82.0297C38.2753 81.8634 37.9291 81.7782 37.5782 81.782C37.2926 81.7726 37.008 81.8217 36.7418 81.9262C36.4756 82.0306 36.2335 82.1884 36.0301 82.3897C35.6361 82.8382 35.4182 83.415 35.4169 84.0126C35.4155 84.6103 35.6309 85.188 36.0229 85.6383C36.3607 85.9552 36.7879 86.1599 37.246 86.2243C37.7042 86.2888 38.171 86.2099 38.5828 85.9983C38.9001 85.825 39.1648 85.5689 39.3489 85.2572L40.6304 86.0056C40.3623 86.5309 39.9415 86.9621 39.4236 87.2424C38.8594 87.5409 38.2287 87.6906 37.591 87.6773C36.9 87.6882 36.2172 87.5272 35.6035 87.2086" fill="#112D35"/>
<path d="M48.7368 80.4461L45.4039 88.1573C45.1875 88.7998 44.7939 89.3678 44.2686 89.7951C43.7953 90.1213 43.2307 90.288 42.6565 90.2711C42.2981 90.2695 41.9423 90.2106 41.6024 90.0966C41.2871 89.9981 40.9963 89.8335 40.7493 89.6137L41.416 88.3842C41.5811 88.5383 41.7734 88.6604 41.9829 88.7443C42.1919 88.8316 42.416 88.877 42.6424 88.8777C42.9037 88.8879 43.1605 88.8074 43.3693 88.6498C43.6012 88.4413 43.7813 88.1815 43.8954 87.891L44.0161 87.6096L40.9089 80.4458H42.6421L44.8817 85.7227L47.1357 80.4458L48.7368 80.4461Z" fill="#112D35"/>
<path d="M51.0559 87.2087C50.4857 86.912 50.0102 86.4606 49.6836 85.9061C49.3491 85.3325 49.1783 84.6779 49.1895 84.0137C49.1777 83.3521 49.3487 82.7001 49.6836 82.1298C50.0104 81.5797 50.4831 81.1313 51.049 80.8344C51.6646 80.5135 52.3506 80.3523 53.0443 80.3657C53.6853 80.3513 54.3197 80.4983 54.8893 80.7934C55.4071 81.0663 55.8253 81.4968 56.0838 82.0229L54.8023 82.7713C54.6177 82.46 54.3531 82.204 54.0361 82.0302C53.7269 81.8639 53.3808 81.7787 53.0299 81.7825C52.7442 81.7731 52.4596 81.8222 52.1934 81.9267C51.9273 82.0311 51.6851 82.1889 51.4818 82.3902C51.0878 82.8387 50.8698 83.4155 50.8685 84.0131C50.8672 84.6108 51.0826 85.1885 51.4745 85.6388C51.8123 85.9557 52.2395 86.1604 52.6977 86.2248C53.1558 86.2893 53.6227 86.2104 54.0344 85.9988C54.3518 85.8255 54.6165 85.5694 54.8006 85.2577L56.082 86.0061C55.814 86.5313 55.3931 86.9626 54.8752 87.2429C54.3111 87.5414 53.6804 87.6911 53.0426 87.6778C52.3517 87.6887 51.6688 87.5277 51.0552 87.2091" fill="#112D35"/>
<path d="M59.1888 77.6646H57.5231V87.5816H59.1888V77.6646Z" fill="#112D35"/>
<path d="M68.0401 84.55H62.4552C62.5383 85.0507 62.8132 85.499 63.2214 85.7992C63.6704 86.1176 64.2112 86.2797 64.7609 86.2607C65.1193 86.272 65.4762 86.2088 65.809 86.075C66.1419 85.9413 66.4435 85.74 66.695 85.4837L67.5874 86.5156C67.2618 86.9017 66.845 87.2 66.375 87.3833C65.8476 87.5855 65.2866 87.6854 64.722 87.6775C64.0051 87.6923 63.2955 87.5314 62.6548 87.2088C62.0797 86.9163 61.6008 86.4641 61.2752 85.9061C60.9454 85.331 60.7771 84.677 60.7881 84.0137C60.7786 83.3572 60.9424 82.7098 61.2629 82.1372C61.5694 81.588 62.024 81.1366 62.5746 80.8345C63.1542 80.5166 63.8062 80.3551 64.4667 80.3658C65.1166 80.3546 65.7582 80.5137 66.3279 80.8273C66.8686 81.1287 67.3121 81.5789 67.606 82.1247C67.9223 82.7182 68.0808 83.3834 68.0663 84.0561C68.0663 84.172 68.0573 84.3376 68.0394 84.5514M63.1137 82.1779C62.7409 82.5009 62.5009 82.951 62.4401 83.4412H66.4813C66.4273 82.9498 66.1894 82.4973 65.8157 82.1748C65.442 81.8524 64.9601 81.684 64.4674 81.7036C63.9738 81.6902 63.4924 81.8589 63.1147 82.1779" fill="#112D35"/>
<path d="M69.4264 87.3623C69.3212 87.2595 69.2384 87.1359 69.1834 86.9994C69.1283 86.8628 69.1021 86.7163 69.1065 86.5691C69.102 86.4223 69.1269 86.2761 69.1798 86.1392C69.2327 86.0023 69.3125 85.8775 69.4145 85.7721C69.5164 85.6667 69.6385 85.5829 69.7733 85.5257C69.9082 85.4684 70.0532 85.439 70.1996 85.439C70.3461 85.439 70.491 85.4684 70.6259 85.5257C70.7607 85.5829 70.8828 85.6667 70.9847 85.7721C71.0867 85.8775 71.1665 86.0023 71.2194 86.1392C71.2723 86.2761 71.2972 86.4223 71.2927 86.5691C71.2944 86.7865 71.2317 86.9996 71.1126 87.1813C70.9935 87.3631 70.8234 87.5054 70.6237 87.5902C70.424 87.6751 70.2037 87.6988 69.9906 87.6582C69.7775 87.6176 69.5812 87.5147 69.4264 87.3623Z" fill="#112D35"/>
</g>
<defs>
<clipPath id="clip0_1_174">
<rect width="339.112" height="123" fill="white"/>
</clipPath>
</defs>
</svg>
